<svg xmlns="http://www.w3.org/2000/svg" width="116" height="43" viewBox="0 0 116 43"><g><g><g><g><path fill="#025953" d="M116.002 2.614c0 1.132-.912 1.6-1.952 1.6-1.6 0-2.348-.996-3.128-2.3-2.78 1.2-3.256 7.856-3.516 10.852h3.472l-.216 1.536h-3.432c-.824 9.68-1.124 13.848-1.82 17.496-1.26 6.596-7.38 10.288-11.376 10.288-1.344 0-3.124-.74-3.124-2.344a1.652 1.652 0 0 1 1.692-1.6c1.432 0 2.52 1 3.256 2.172 2.172-1.2 2.476-2.212 3.344-6.556.4-1.952 1.348-12.4 2-19.448H98.51l.22-1.52h2.688l.4-2.4c1.476-8.984 8.12-10 10.46-10 1.248.012 3.724.62 3.724 2.224z"/></g><g><path fill="#025953" d="M101.992 2.61c0 1.132-.912 1.6-1.956 1.6-1.6 0-2.344-.996-3.124-2.3-2.78 1.2-3.256 7.856-3.516 10.852h3.472l-.216 1.52H93.22c-.824 9.68-1.128 13.848-1.82 17.496-1.26 6.596-7.38 10.288-11.376 10.288-1.344 0-3.124-.74-3.124-2.344a1.652 1.652 0 0 1 1.692-1.6c1.432 0 2.516 1 3.256 2.172 2.172-1.2 2.472-2.212 3.34-6.556.4-1.952 1.348-12.4 2-19.448h-2.692l.216-1.52h2.692l.4-2.4c1.472-8.984 8.116-10 10.46-10 1.236.028 3.728.636 3.728 2.24z"/></g><g><path fill="#025953" d="M71.15 30.45c-2.732 0-2.864-4.428-2.864-6.252 0-2.82.564-10.588 4.6-10.588 2.732 0 2.864 4.424 2.864 6.292 0 2.772-.564 10.54-4.6 10.548zm-9.16-5.128c0 4.644 2.824 6.772 7.6 6.772 7.772 0 12.46-6.208 12.46-13.372 0-4.644-2.824-6.772-7.6-6.772-7.772 0-12.46 6.208-12.46 13.372z"/></g><g><path fill="#025953" d="M53.598 14.032c-.568 4.036-.896 6.512-1.96 9.192-.568 1.476-2.256 4.732-4.168 4.732-1.384 0-1.6-2.304-1.6-3.256 0-3.856 2.256-10.8 7.032-10.8.237.002.471.047.692.132zm7.596 14.456a16 16 0 0 1-2.648.824c-.564 0-.564-.736-.564-1.3 0-2.088 2.996-22.7 2.996-26.7 0-.652-.12-.652-.52-.652a32 32 0 0 0-9.42 1.864l.4 1.26c1.52-.48 2.116-.608 2.516-.608.524 0 .524.432.524.912 0 1.432-.044 3.428-.652 8.16h-1.564c-7.508 0-12.892 7.092-12.892 13.892 0 2.692 1.304 5.948 4.428 5.948 3.904 0 6.948-4.212 8.508-7.34l.088.088c-.22 2.432-.304 3.692-.304 4.604 0 .78-.044 2.648 1.128 2.648 2.3 0 5.644-1.1 8.376-2.4z"/></g><g><path fill="#025953" d="M38.128 28.274l.436 1.04c-1.468.956-6.428 2.432-8.468 2.432-.912 0-1.128-.956-1.128-1.696 0-2.256 1.3-11.2 1.3-12.544 0-.696-.128-1.432-.908-1.432-.652 0-1.084.52-2.304 2.3-1.22 1.78-2.908 6.556-3.732 12.892h-5.772c.476-3.644 1.736-14.8 1.736-15.756 0-.436 0-1.04-.564-1.04-.4 0-1.044.216-2.564.648l-.4-1.3c3.2-1.172 7.032-1.868 9.244-1.868.476 0 .564.084.564.652 0 1.128-.172 3.904-.4 6.728l.084.088c1.132-2.564 4.084-7.468 7.86-7.468 2.472 0 3.2 1.652 3.2 4 0 2.608-1.304 11.072-1.304 12.2 0 .48.176.868.74.868.34-.008.728-.092 2.38-.744z"/></g><g><path fill="#025953" d="M16.016 3.7L15.8 5.348h-1.952c-.432 0-.912 0-.956.564-.172 2.128-2.864 18.4-2.864 22.1 0 1.6.344 1.6 1.344 1.6H13.5l-.216 1.648H0l.216-1.648h1.736c1 0 1.088-.172 1.088-.564 0-1.26 2.904-18.58 2.904-22.62 0-.996 0-1.084-.864-1.084H2.516l.22-1.644z"/></g></g></g></g></svg>