<?xml version="1.0" encoding="utf-8"?>
<!-- Generator: Adobe Illustrator 26.3.1, SVG Export Plug-In . SVG Version: 6.00 Build 0)  -->
<svg version="1.1" id="Layer_1" xmlns="http://www.w3.org/2000/svg" xmlns:xlink="http://www.w3.org/1999/xlink" x="0px" y="0px"
	 viewBox="0 0 116 43" style="enable-background:new 0 0 116 43;" xml:space="preserve">
<style type="text/css">
	.st0{fill:#025953;}
</style>
<g>
	<g>
		<g>
			<g>
				<path class="st0" d="M116,2.6c0,1.1-0.9,1.6-2,1.6c-1.6,0-2.3-1-3.1-2.3c-2.8,1.2-3.3,7.9-3.5,10.9h3.5l-0.2,1.5h-3.4
					c-0.8,9.7-1.1,13.8-1.8,17.5C104.1,38.4,98,42.1,94,42.1c-1.3,0-3.1-0.7-3.1-2.3c0-0.9,0.8-1.6,1.7-1.6c1.4,0,2.5,1,3.3,2.2
					c2.2-1.2,2.5-2.2,3.3-6.6c0.4-2,1.3-12.4,2-19.4h-2.7l0.2-1.5h2.7l0.4-2.4c1.5-9,8.1-10,10.5-10C113.5,0.4,116,1,116,2.6z"/>
			</g>
			<g>
				<path class="st0" d="M102,2.6c0,1.1-0.9,1.6-2,1.6c-1.6,0-2.3-1-3.1-2.3c-2.8,1.2-3.3,7.9-3.5,10.9h3.5l-0.2,1.5h-3.4
					c-0.8,9.7-1.1,13.8-1.8,17.5C90.1,38.4,84,42.1,80,42.1c-1.3,0-3.1-0.7-3.1-2.3c0-0.9,0.8-1.6,1.7-1.6c1.4,0,2.5,1,3.3,2.2
					c2.2-1.2,2.5-2.2,3.3-6.6c0.4-2,1.3-12.4,2-19.4h-2.7l0.2-1.5h2.7l0.4-2.4c1.5-9,8.1-10,10.5-10C99.5,0.4,102,1,102,2.6z"/>
			</g>
			<g>
				<path class="st0" d="M71.2,30.5c-2.7,0-2.9-4.4-2.9-6.3c0-2.8,0.6-10.6,4.6-10.6c2.7,0,2.9,4.4,2.9,6.3
					C75.8,22.7,75.2,30.4,71.2,30.5z M62,25.3c0,4.6,2.8,6.8,7.6,6.8c7.8,0,12.5-6.2,12.5-13.4c0-4.6-2.8-6.8-7.6-6.8
					C66.7,12,62,18.2,62,25.3z"/>
			</g>
			<g>
				<path class="st0" d="M53.6,14c-0.6,4-0.9,6.5-2,9.2c-0.6,1.5-2.3,4.7-4.2,4.7c-1.4,0-1.6-2.3-1.6-3.3c0-3.9,2.3-10.8,7-10.8
					C53.1,13.9,53.4,13.9,53.6,14L53.6,14z M61.2,28.5c-0.9,0.4-1.7,0.6-2.6,0.8C58,29.3,58,28.6,58,28c0-2.1,3-22.7,3-26.7
					c0-0.7-0.1-0.7-0.5-0.7c-3.2,0.1-6.4,0.8-9.4,1.9l0.4,1.3C53,3.3,53.6,3.2,54,3.2c0.5,0,0.5,0.4,0.5,0.9c0,1.4,0,3.4-0.7,8.2
					h-1.6c-7.5,0-12.9,7.1-12.9,13.9c0,2.7,1.3,5.9,4.4,5.9c3.9,0,6.9-4.2,8.5-7.3l0.1,0.1c-0.2,2.4-0.3,3.7-0.3,4.6
					c0,0.8,0,2.6,1.1,2.6c2.3,0,5.6-1.1,8.4-2.4L61.2,28.5z"/>
			</g>
			<g>
				<path class="st0" d="M38.1,28.3l0.4,1c-1.5,1-6.4,2.4-8.5,2.4c-0.9,0-1.1-1-1.1-1.7c0-2.3,1.3-11.2,1.3-12.5
					c0-0.7-0.1-1.4-0.9-1.4c-0.7,0-1.1,0.5-2.3,2.3c-1.2,1.8-2.9,6.6-3.7,12.9h-5.8c0.5-3.6,1.7-14.8,1.7-15.8c0-0.4,0-1-0.6-1
					c-0.4,0-1,0.2-2.6,0.6l-0.4-1.3c3.2-1.2,7-1.9,9.2-1.9c0.5,0,0.6,0.1,0.6,0.7c0,1.1-0.2,3.9-0.4,6.7l0.1,0.1
					c1.1-2.6,4.1-7.5,7.9-7.5c2.5,0,3.2,1.7,3.2,4c0,2.6-1.3,11.1-1.3,12.2c0,0.5,0.2,0.9,0.7,0.9C36.1,29,36.5,28.9,38.1,28.3z"/>
			</g>
			<g>
				<path class="st0" d="M16,3.7l-0.2,1.6h-2c-0.4,0-0.9,0-1,0.6C12.7,8,10,24.3,10,28c0,1.6,0.3,1.6,1.3,1.6h2.1l-0.2,1.6H0
					l0.2-1.6H2C3,29.6,3,29.4,3,29c0-1.3,2.9-18.6,2.9-22.6c0-1,0-1.1-0.9-1.1H2.5l0.2-1.6L16,3.7z"/>
			</g>
		</g>
	</g>
</g>
</svg>
